<svg width="56" height="50" viewBox="0 0 56 50" fill="none" xmlns="http://www.w3.org/2000/svg">
<path d="M27.7778 50C35.1449 50 42.2103 47.3661 47.4196 42.6777C52.629 37.9893 55.5556 31.6304 55.5556 25C55.5556 18.3696 52.629 12.0107 47.4196 7.32233C42.2103 2.63392 35.1449 0 27.7778 0C20.4107 0 13.3453 2.63392 8.13592 7.32233C2.92658 12.0107 0 18.3696 0 25C0 31.6304 2.92658 37.9893 8.13592 42.6777C13.3453 47.3661 20.4107 50 27.7778 50ZM27.7778 3.125C30.059 3.125 32.6632 4.96875 34.7986 9.0875C35.5521 10.5437 36.2083 12.2188 36.7396 14.0625H18.816C19.3472 12.2188 20.0035 10.5437 20.7604 9.0875C22.8889 4.96875 25.4931 3.125 27.7778 3.125ZM17.6111 7.76563C16.5858 9.78692 15.7912 11.8967 15.2396 14.0625H6.72222C9.65361 9.50272 14.3098 6.04422 19.8403 4.31875C19.0035 5.35 18.2569 6.51875 17.6111 7.76563ZM14.5556 17.1875C14.1062 19.7719 13.8833 22.3841 13.8889 25C13.8889 27.7188 14.1215 30.35 14.559 32.8125H5.06944C4.01051 30.3182 3.46914 27.6702 3.47222 25C3.47222 22.25 4.03819 19.6125 5.06944 17.1875H14.559H14.5556ZM15.2396 35.9375C15.8507 38.2594 16.6528 40.3813 17.6111 42.2344C18.2569 43.4813 19.0035 44.65 19.8403 45.6813C14.3098 43.9558 9.65361 40.4973 6.72222 35.9375H15.2431H15.2396ZM18.816 35.9375H36.7396C36.2613 37.6457 35.6104 39.311 34.7951 40.9125C32.6667 45.0312 30.0625 46.875 27.7778 46.875C25.4965 46.875 22.8924 45.0312 20.7569 40.9125C19.9442 39.3107 19.2956 37.6455 18.8194 35.9375H18.816ZM37.4792 32.8125H18.0764C17.5939 30.2311 17.3546 27.6177 17.3611 25C17.3611 22.2406 17.6146 19.6094 18.0764 17.1875H37.4792C37.941 19.6094 38.1944 22.2406 38.1944 25C38.1944 27.7594 37.941 30.3906 37.4792 32.8125ZM40.316 35.9375H48.8333C45.9019 40.4973 41.2458 43.9558 35.7153 45.6813C36.5521 44.65 37.2986 43.4813 37.9444 42.2344C38.9028 40.3813 39.7049 38.2594 40.316 35.9375ZM50.4896 32.8125H40.9965C41.434 30.35 41.6667 27.7188 41.6667 25C41.6667 22.2812 41.434 19.65 40.9965 17.1875H50.4861C51.5174 19.6125 52.0833 22.25 52.0833 25C52.0833 27.75 51.5174 30.3875 50.4861 32.8125H50.4896ZM35.7153 4.31875C41.2459 6.04397 45.9022 9.50254 48.8333 14.0625H40.3125C39.7608 11.8967 38.9662 9.78693 37.941 7.76563C37.3227 6.55487 36.5762 5.40057 35.7118 4.31875H35.7153Z" fill="white"/>
</svg>
