<svg width="447" height="503" viewBox="0 0 447 503" fill="none" xmlns="http://www.w3.org/2000/svg">
<path opacity="0.05" d="M-256 452.639C-204.562 432.452 -179.002 398.17 -179.32 349.793C-179.796 277.227 -151.631 236.067 -101.268 241.435C-50.9053 246.804 -15.7287 305.733 -17.0637 368.391C-18.3988 431.05 50.8259 445.346 81.1775 438.388C111.529 431.431 132.91 410.181 137.824 383.687C148.692 325.092 69.6486 262.499 84.0404 209.271C98.4322 156.044 176.675 149.729 211.856 206.398C213.589 209.19 215.397 211.849 217.272 214.38C254.972 265.261 319.947 264.031 355.539 237.82C417.259 192.367 408.13 130.17 338.156 76.4009C233.45 -7.32997 185.759 -86.9419 195.081 -162.435" stroke="url(#paint0_linear_1_84)" stroke-width="100" stroke-linecap="round"/>
<defs>
<linearGradient id="paint0_linear_1_84" x1="-256" y1="452.639" x2="374.653" y2="-186.852" gradientUnits="userSpaceOnUse">
<stop stop-color="#4E7577"/>
<stop offset="1" stop-color="#65D5FC"/>
<stop offset="1" stop-color="#23445B"/>
</linearGradient>
</defs>
</svg>
