<svg width="32" height="20" viewBox="0 0 32 20" fill="none" xmlns="http://www.w3.org/2000/svg">
<path d="M31.3307 3.90002C31.1499 3.33032 30.7934 2.81037 30.2968 2.39221C29.8003 1.97406 29.1811 1.67239 28.5013 1.51741C26.0067 0.954101 16 0.954102 16 0.954102C16 0.954102 5.99333 0.954101 3.49733 1.51741C2.81788 1.67266 2.19906 1.97445 1.70277 2.39257C1.20648 2.81069 0.850122 3.33051 0.669333 3.90002C0 6.00153 0 10.3853 0 10.3853C0 10.3853 0 14.769 0.669333 16.8705C0.850115 17.4402 1.20663 17.9601 1.70319 18.3783C2.19974 18.7964 2.8189 19.0981 3.49867 19.2531C5.99333 19.8164 16 19.8164 16 19.8164C16 19.8164 26.0067 19.8164 28.5027 19.2531C29.1825 19.0982 29.8017 18.7966 30.2983 18.3784C30.7949 17.9602 31.1513 17.4402 31.332 16.8705C32 14.769 32 10.3853 32 10.3853C32 10.3853 32 6.00153 31.3307 3.90002ZM12.7267 14.3652V6.40535L21.0907 10.3853L12.7267 14.3652Z" fill="white"/>
</svg>
