<svg width="43" height="30" viewBox="0 0 43 30" fill="none" xmlns="http://www.w3.org/2000/svg">
<path d="M42.1006 4.74213C41.8577 3.85496 41.3786 3.04525 40.7113 2.39407C40.0442 1.7429 39.2121 1.27311 38.2986 1.03177C34.9465 0.154541 21.5 0.154541 21.5 0.154541C21.5 0.154541 8.05354 0.154541 4.69954 1.03177C3.78653 1.27354 2.95499 1.7435 2.2881 2.39462C1.62121 3.04576 1.14235 3.85525 0.899416 4.74213C0 8.01475 0 14.8414 0 14.8414C0 14.8414 0 21.6681 0.899416 24.9407C1.14234 25.8279 1.62141 26.6376 2.28866 27.2887C2.9559 27.9398 3.7879 28.4096 4.70134 28.651C8.05354 29.5282 21.5 29.5282 21.5 29.5282C21.5 29.5282 34.9465 29.5282 38.3005 28.651C39.214 28.4099 40.046 27.9401 40.7133 27.289C41.3806 26.6377 41.8596 25.8279 42.1024 24.9407C43 21.6681 43 14.8414 43 14.8414C43 14.8414 43 8.01475 42.1006 4.74213ZM17.1015 21.0392V8.64361L28.3406 14.8414L17.1015 21.0392Z" fill="#A89D9D"/>
</svg>
