<svg width="32" height="32" viewBox="0 0 32 32" fill="none" xmlns="http://www.w3.org/2000/svg">
<path d="M16 0.175537C11.6533 0.175537 11.1107 0.19512 9.404 0.269533C7.7 0.347863 6.54 0.610267 5.52 0.998C4.468 1.39748 3.57467 1.93404 2.68533 2.8048C1.796 3.67558 1.24667 4.54895 0.84 5.58029C0.444 6.579 0.174667 7.71478 0.096 9.38321C0.016 11.0543 0 11.5855 0 15.8415C0 20.0974 0.02 20.6287 0.096 22.2998C0.176 23.9669 0.444 25.104 0.84 26.1027C1.248 27.1315 1.796 28.0074 2.68533 28.8782C3.57467 29.7477 4.46667 30.2868 5.52 30.685C6.54133 31.0715 7.70133 31.3364 9.404 31.4135C11.1107 31.4918 11.6533 31.5075 16 31.5075C20.3467 31.5075 20.8893 31.4879 22.596 31.4135C24.2987 31.3351 25.46 31.0715 26.48 30.685C27.5307 30.2855 28.4253 29.7477 29.3147 28.8782C30.2027 28.0074 30.7533 27.1354 31.16 26.1027C31.5547 25.104 31.8253 23.9669 31.904 22.2998C31.984 20.6287 32 20.0974 32 15.8415C32 11.5855 31.98 11.0543 31.904 9.38321C31.824 7.71608 31.5547 6.5777 31.16 5.58029C30.752 4.55026 30.2027 3.67558 29.3147 2.8048C28.4253 1.93404 27.5347 1.39618 26.48 0.998C25.46 0.610267 24.2987 0.346557 22.596 0.269533C20.8893 0.191203 20.3467 0.175537 16 0.175537ZM16 2.99541C20.2707 2.99541 20.78 3.01629 22.4667 3.0881C24.0267 3.1599 24.8733 3.41317 25.436 3.62988C26.1853 3.91317 26.716 4.2526 27.2787 4.79961C27.8373 5.34792 28.184 5.86881 28.4733 6.6025C28.692 7.15342 28.9533 7.9824 29.024 9.50983C29.1 11.1626 29.1173 11.6587 29.1173 15.8415C29.1173 20.0243 29.0973 20.5217 29.0187 22.1732C28.9373 23.7006 28.6773 24.5295 28.4573 25.0805C28.1587 25.8142 27.8187 26.3338 27.2587 26.8847C26.7 27.4317 26.16 27.7711 25.4187 28.0544C24.8587 28.2685 23.9987 28.5244 22.4387 28.5936C20.74 28.668 20.24 28.6849 15.96 28.6849C11.6787 28.6849 11.1787 28.6654 9.48133 28.5884C7.92 28.5087 7.06 28.2541 6.5 28.0387C5.74133 27.7464 5.22 27.4135 4.66133 26.8651C4.1 26.3181 3.74133 25.7894 3.46133 25.0636C3.24133 24.5152 2.98267 23.6732 2.90133 22.1458C2.84133 20.5008 2.82 19.993 2.82 15.8219C2.82 11.6496 2.84133 11.1404 2.90133 9.4759C2.98267 7.94847 3.24133 7.10772 3.46133 6.55942C3.74133 5.81528 4.1 5.30614 4.66133 4.75653C5.22 4.20952 5.74133 3.85704 6.5 3.58419C7.06 3.36748 7.90133 3.1129 9.46133 3.03457C11.1613 2.97583 11.6613 2.95624 15.94 2.95624L16 2.99541ZM16 7.79703C11.46 7.79703 7.784 11.4002 7.784 15.8415C7.784 20.2867 11.464 23.886 16 23.886C20.54 23.886 24.216 20.2828 24.216 15.8415C24.216 11.3963 20.536 7.79703 16 7.79703ZM16 21.0634C13.0533 21.0634 10.6667 18.7267 10.6667 15.8415C10.6667 12.9563 13.0533 10.6195 16 10.6195C18.9467 10.6195 21.3333 12.9563 21.3333 15.8415C21.3333 18.7267 18.9467 21.0634 16 21.0634ZM26.4613 7.47979C26.4613 8.51766 25.6 9.35971 24.5413 9.35971C23.4813 9.35971 22.6213 8.51636 22.6213 7.47979C22.6213 6.44322 23.4827 5.60118 24.5413 5.60118C25.5987 5.59988 26.4613 6.44322 26.4613 7.47979Z" fill="#A89D9D"/>
</svg>
