<svg width="20" height="20" viewBox="0 0 20 20" fill="none" xmlns="http://www.w3.org/2000/svg">
<path d="M9.16301 4.51593C9.58101 4.92393 13.665 9.21093 13.665 9.21093C13.7709 9.31307 13.855 9.43548 13.9126 9.57087C13.9701 9.70625 13.9997 9.85184 13.9997 9.99893C13.9997 10.146 13.9701 10.2916 13.9126 10.427C13.855 10.5624 13.7709 10.6848 13.665 10.7869C13.665 10.7869 9.58101 15.0759 9.16301 15.4819C8.74501 15.8899 7.99301 15.9179 7.54801 15.4819C7.10201 15.0479 7.06701 14.4409 7.54801 13.9079L11.295 9.99993L7.54801 6.09193C7.06701 5.55893 7.10201 4.95093 7.54801 4.51593C7.99301 4.07993 8.74501 4.10693 9.16301 4.51593Z" fill="#B3B3B3"/>
</svg>
