<svg width="14" height="13" viewBox="0 0 14 13" fill="none" xmlns="http://www.w3.org/2000/svg">
<path d="M12.621 4.54345L8.7111 3.96041L6.96327 0.324712C6.91553 0.225169 6.837 0.144586 6.73998 0.0956046C6.49667 -0.0276395 6.201 0.075064 6.07935 0.324712L4.33152 3.96041L0.421611 4.54345C0.313816 4.55925 0.215259 4.6114 0.139802 4.6904C0.048579 4.7866 -0.00168917 4.91603 4.3343e-05 5.05024C0.00177586 5.18446 0.0553674 5.31247 0.149042 5.40616L2.97791 8.23604L2.30958 12.232C2.2939 12.3249 2.30393 12.4205 2.33851 12.508C2.3731 12.5954 2.43086 12.6711 2.50525 12.7265C2.57964 12.7819 2.66768 12.8149 2.75939 12.8216C2.8511 12.8283 2.9428 12.8085 3.02411 12.7645L6.52131 10.8779L10.0185 12.7645C10.114 12.8166 10.2249 12.834 10.3311 12.815C10.5991 12.7676 10.7792 12.5069 10.733 12.232L10.0647 8.23604L12.8936 5.40616C12.9706 5.32874 13.0214 5.22762 13.0368 5.11701C13.0784 4.8405 12.8905 4.58454 12.621 4.54345Z" fill="#FFB742"/>
</svg>
